# xmcd CD database file
#
# Track frame offsets:
#	150
#	13674
#	24978
#	36274
#	50299
#	63407
#	80413
#	92744
#	104667
#	119015
#	132001
#	156114
#	170484
#	181475
#	195231
#	207878
#	218898
#	229964
#	243545
#	257991
#	267989
#	279699
#	292831
#	308983
#	321134
#
# Disc length: 4449 seconds
#
# Revision: 0
# Processed by: cddbd v1.5.2PL0 Copyright (c) Steve Scherf et al.
# Submitted via: CDex 1.70beta2
#
DISCID=6e115f19
DTITLE=omnibus - Best Jazz Vocal 100 2 A Taste Of Love_Disc2
DYEAR=1900
DGENRE=Jazz
TTITLE0=FLY ME TO THE MOON/ Peggy Lee
TTITLE1=I COULD HAVE DANCED ALL NIGHT/ Nat King Cole
TTITLE2=I`M IN THE MOOD FOR LOVE/ Julie London
TTITLE3=THE NEARNESS OF YOU/ Norah Jones
TTITLE4=SATIN DOLL/ Nancy Wilson
TTITLE5=THEY CAN`T TAKE THAT AWAY FROM ME/ Eliane Elias
TTITLE6=YOU ARE TOO BEAUTIFUL/ Joe Williams
TTITLE7=TAKIN` A CHANCE ON LOVE/ Dinah Shore
TTITLE8=ON THE STREET WHERE YOU LIVE/ Les McCann
TTITLE9=QUIET NIGHTS (CORCOVADO)/ Blossom Dearie
TTITLE10=I CONCENTRATE ON YOU/ Dianne Reeves
TTITLE11=BLUE MOON/ June Christy
TTITLE12=WHAT IS THIS THING CALLED LOVE/ The Four Freshmen
TTITLE13=I`LL BE SEEING YOU/ Eve Boswell
TTITLE14=STAIRWAY TO THE STARS/ Beverly Kenney
TTITLE15=THE MORE I SEE YOU/ Bing Crosby
TTITLE16=TEA FOR TWO/ The Andrews Sisters
TTITLE17=ISN`T IT ROMANTIC/ Jeri Southern
TTITLE18=I THOUGHT ABOUT YOU/ Johnny Hartman
TTITLE19=EASY TO LOVE/ Sarah Vaughan
TTITLE20=MISTY/ Dakota Staton
TTITLE21=SIDE BY SIDE/ Kay Starr
TTITLE22=THE VERY THOUGHT OF YOU/ Dick Haymes
TTITLE23=YOU`RE MY THRILL/ Dolores Gray
TTITLE24=MY BLUE HEAVEN/ Matt Dennis
EXTD=
EXTT0=
EXTT1=
EXTT2=
EXTT3=
EXTT4=
EXTT5=
EXTT6=
EXTT7=
EXTT8=
EXTT9=
EXTT10=
EXTT11=
EXTT12=
EXTT13=
EXTT14=
EXTT15=
EXTT16=
EXTT17=
EXTT18=
EXTT19=
EXTT20=
EXTT21=
EXTT22=
EXTT23=
EXTT24=
PLAYORDER=
